<?xml version="1.0" encoding="UTF-8" standalone="no"?>
<svg xmlns="http://www.w3.org/2000/svg" xmlns:xlink="http://www.w3.org/1999/xlink" version="1.1" width="1400" height="600" viewBox="260 160.5 1400 600"><g id="document" fill-opacity="0" fill="#ffffff" fill-rule="nonzero" font-family="none" font-weight="none" font-size="none"><rect x="130" y="133.75" transform="scale(2,1.2)" width="700" height="500" id="Shape-1-1"/></g><g fill="none" fill-rule="nonzero" stroke="none" stroke-width="none" stroke-linecap="butt" stroke-linejoin="miter" stroke-miterlimit="10" font-family="none" font-weight="none" font-size="none"><g id="stage"><g id="layer1-1"><g id="Group-1"><g id="Group-1-1"><path d="M856.24285,591.80732c0,0 -0.02278,-0.04017 -0.11092,-0.18636c-3.73728,-2.53174 -5.30931,-3.36206 -8.93526,-0.65854c0,0 -1.49112,0.68667 -1.48456,2.65318c0.00276,0.82794 0.60189,4.21721 0.47071,4.19213c0,0 -1.16973,-1.49081 -1.97504,-3.10852c-0.80531,-1.6177 -0.77294,-3.47597 -0.24089,-4.8994c0.53205,-1.42343 4.79974,-4.53027 6.4165,-5.22078c4.12665,-2.27933 8.38009,-1.79005 12.27727,-0.60929c3.89718,1.18077 7.00807,2.22705 9.70135,4.09109c9.45325,6.54255 13.64463,14.77259 15.21958,25.84651c-0.38164,4.76777 -0.59512,10.35784 -1.59859,14.81294c-2.38511,10.58893 -7.74702,19.43747 -16.0154,26.63422c-11.94815,10.39978 -26.08165,14.89146 -41.47084,16.85146c-19.06381,2.42815 -37.8465,1.60435 -56.81855,-1.77533c-21.35531,-3.80422 -37.80691,-12.7328 -54.85104,-27.83707c-11.89386,-12.10548 -25.25301,-22.98051 -40.36296,-31.14468c-12.82633,-6.93019 -26.54773,-12.48142 -40.20634,-17.54026c-8.08105,-2.99305 -15.71656,-5.87183 -23.58728,-9.38128c-1.31047,-0.58429 -2.73951,-2.33932 -3.30326,-3.71336c-1.09746,-2.67478 -1.71441,-5.58182 -2.53039,-8.3687c-0.57027,-3.9772 -0.30474,-9.83828 -0.36125,-14.23857c0.05865,-0.39264 0.1173,-0.78528 0.27634,-1.50399c2.60533,-16.24296 13.73407,-48.0557 13.73407,-48.0557c0,0 0.57899,1.63204 1.89716,2.81638c4.67822,4.08353 23.81753,13.32111 34.60453,19.03707c1.48879,0.78886 1.7515,1.23404 0.91993,2.72899c-1.4213,2.55501 -2.89448,5.21266 -4.1588,7.84769c-2.93159,6.10998 -2.0714,12.37215 3.01759,16.82897c1.76665,1.54725 4.54123,2.88958 6.61417,4.01771c8.48594,4.6183 16.8113,9.13033 25.48494,13.70566c5.27101,2.97971 11.69978,5.61668 14.78566,1.26515c2.25757,-3.1835 1.10017,-4.21056 4.79151,-2.27054c0.92912,0.51094 8.84817,4.73057 9.62224,5.21788c0.72901,0.46571 16.46623,8.62399 16.73514,8.79916c0.76745,0.44268 14.92964,7.05628 16.4294,7.77784c11.57773,4.80799 19.35648,7.41166 31.86753,8.11853c6.95462,0.39294 13.91346,-0.33355 20.43126,-3.48928c2.59562,2.21276 5.04399,4.31592 7.49236,6.41908c0,0 0.02809,0.06272 0.09987,0.21897c6.11071,5.20224 12.69804,9.40279 20.24747,11.83588c3.51887,1.13402 7.27581,1.55088 10.92486,2.29285c1.67548,0.01898 4.19293,0.27852 5.42046,0.04378c2.7517,-1.05292 5.10932,-2.09274 7.46697,-3.13257c0,0 0.05898,-0.00469 0.23784,-0.03652c3.62727,-2.3796 5.92577,-5.58704 6.85929,-9.56649c1.18638,-5.05765 1.37024,-10.04878 -2.67108,-14.20661c0,0 -0.0017,-0.11866 -0.05666,-0.29091c-1.13897,-1.05423 -2.22293,-1.93633 -3.30689,-2.81837z" id="Path-1-1-1-1" fill="#082a58" stroke-width="1"/><path d="M621.76768,502.86364c-0.43498,-0.85107 1.85088,-28.44469 3.06265,-35.9189c0.9168,-7.57252 0.80281,-8.01094 1.05858,-13.18395c0.25577,-5.173 1.43398,-27.83639 1.37621,-27.77862c-0.05776,0.05776 0.53948,-19.1093 0.49659,-19.4698c-1.47534,-12.40304 -2.03906,-9.92675 -3.37101,-13.50908c-1.358,-1.9953 -3.03305,-5.13913 -3.92468,-5.30443c-0.89163,-0.1653 -1.45434,2.93588 -1.56452,4.76329c-0.15391,6.17244 -0.17584,8.87533 -0.47701,13.6533c-0.91622,5.88471 -1.10458,7.32097 -4.0168,13.35235c-1.9596,4.4755 -2.44429,5.99076 -5.43719,6.85744c-1.5539,-0.17894 -2.02194,-2.10779 -1.19396,-4.01273c2.17707,-8.78321 3.5288,-16.93898 3.00777,-26.19611c-1.41101,-10.72706 -7.09054,-25.11303 -7.17458,-29.49177c-0.22795,-4.18956 0.08595,-4.22092 0.38991,-6.41111c0.91422,0.34341 2.61611,1.62622 2.9163,1.84331c7.61233,5.50495 14.37942,7.26876 23.215,10.74136c16.00311,4.93394 31.11164,8.37681 47.05208,12.18312c3.70268,1.33263 3.21422,5.18764 3.15156,7.66192c-0.2325,20.11119 -2.21292,35.93981 -1.2765,56.364c0.64416,6.34755 1.99216,8.75983 6.79905,11.72024c4.80689,2.96042 11.63417,5.26117 24.44985,6.09314c9.31671,0.94293 31.1961,0.4132 41.41098,-0.40618c18.62164,-1.71075 21.15586,-5.49798 21.15586,-5.49798c0,0 -2.47551,13.03956 -2.78581,15.99202c-0.37917,2.16844 -1.25287,10.40365 -2.21188,25.11714c0.05419,15.24601 0.40366,20.38997 2.33736,29.16108c1.93369,8.77111 2.1675,12.30539 8.88367,30.00302c-1.8852,-0.49695 -4.3633,-0.30543 -10.01167,-2.47023c-10.64861,-4.43606 -16.0677,-7.26952 -26.8068,-12.98412c-4.8269,-2.56857 -8.10064,-3.87867 -10.94542,-5.57121c-1.85681,-1.10473 -5.17093,-2.0527 -5.3711,-3.8599c-0.20016,-1.8072 5.19653,-7.51757 -2.75155,-12.81729c-7.94807,-5.29972 -24.69201,-13.91043 -33.01865,-17.89642c-4.37172,-2.09269 -10.17472,-3.25596 -14.67028,-0.09399c-3.78878,2.17081 -11.11257,15.71082 -12.48937,17.99694c-1.3768,2.28612 -2.0267,2.47277 -4.91361,0.75893c-2.88691,-1.71384 -10.28732,-6.04858 -13.08285,-7.66366c-8.71565,-5.03548 -13.63768,-7.465 -18.2878,-10.3993c-4.65011,-2.9343 -4.5454,-2.47475 -4.98038,-3.32582zM725.65827,497.35536c3.80471,4.0087 3.32181,6.92626 5.84649,13.70967c1.34246,-4.00235 1.8939,-7.99966 5.3731,-12.7197c3.4792,-4.72004 8.08707,-5.15352 12.53027,-7.17112c-4.61366,-0.85897 -7.54739,-1.92389 -11.28225,-5.16107c-4.41195,-3.98198 -4.84637,-8.2425 -6.31179,-12.46089c-0.63078,1.90336 -3.83451,9.0204 -5.44876,10.98391c-1.63694,2.39287 -6.21167,4.38427 -12.86827,5.87707c1.11202,0.4522 8.3565,2.93343 12.16121,6.94213z" id="CompoundPath-1" fill="#092b58" stroke-width="1"/><path d="M598.00415,422.87863c0.38614,0.94225 0.69232,1.54824 0.9985,2.15422c0.33717,0.82054 0.67436,1.64105 1.0772,2.76712c0.55521,1.39481 1.04479,2.48402 1.62022,3.74555c0.4788,0.49245 0.87172,0.81266 1.31772,1.27587c3.81746,2.1441 8.0436,1.61532 11.453,-1.13562c0.58396,-0.47115 1.55512,-0.4766 2.34741,-0.69717c0.00705,0.85502 0.01409,1.71007 -0.09137,2.8606c-0.63467,2.24992 -1.15684,4.20433 -1.67901,6.15874c-0.75713,0.89313 -1.51427,1.78623 -2.49309,2.77465c-0.35974,0.26329 -0.49778,0.43128 -0.6358,0.59934c-0.16432,0.06563 -0.32862,0.13129 -0.7994,0.29441c-0.47388,0.25186 -0.6413,0.40624 -0.80872,0.56058c-0.29142,0.05879 -0.58281,0.1176 -1.14038,0.17181c-0.54905,0.10383 -0.83192,0.21227 -1.1148,0.32068c-0.51151,-0.01779 -1.02301,-0.03558 -1.83433,-0.12861c-0.73449,-0.05334 -1.16916,-0.03138 -1.60384,-0.00943c-0.46971,-0.08913 -0.93945,-0.17826 -1.6785,-0.38553c-0.61563,-0.17398 -0.96192,-0.22976 -1.3082,-0.28555c-0.4699,-0.17017 -0.93978,-0.34034 -1.66761,-0.68434c-0.76741,-0.36667 -1.27689,-0.55949 -1.78637,-0.7523c-11.25501,-6.35533 -16.67853,-16.82513 -20.66714,-28.33617c-4.12974,-11.91832 -5.57719,-24.33609 -7.17014,-36.72958c-1.46019,-11.36065 -7.48507,-19.52979 -17.81219,-24.64703c-10.65964,-5.28206 -21.45278,-10.3122 -31.99987,-15.80248c-11.2199,-5.84047 -22.05786,-12.34529 -31.68125,-20.59354c-10.72364,-9.19138 -18.97758,-20.01761 -22.60307,-33.83045c-1.9905,-7.58371 -2.42586,-15.2086 -0.66108,-22.89486c0.10355,-0.45095 0.28639,-0.88427 0.5497,-1.6808c0.50915,0.65394 0.9122,1.01261 1.11842,1.45946c7.74249,16.77665 20.01186,29.80162 34.84377,40.66196c15.1899,11.12256 31.98569,19.55903 48.66195,28.22039c7.47357,3.88166 14.79318,8.14436 21.77077,12.82951c5.44203,3.65407 9.22755,8.97355 11.60871,15.41643c0.17908,0.37684 0.30726,0.49153 0.43541,0.60622c0.07326,0.32493 0.14652,0.64987 0.2536,1.29399c0.24061,0.73759 0.44737,1.15602 0.65416,1.57446c0.06451,0.50736 0.12903,1.01469 0.20872,1.85061c0.15378,0.63811 0.29237,0.94769 0.431,1.25725c0.16007,1.26742 0.32012,2.53487 0.49525,4.14721c0.16019,0.73215 0.30532,1.11941 0.45046,1.50664c0.06852,0.82429 0.13703,1.64854 0.20313,2.85774c0.11541,1.33305 0.23321,2.28124 0.35101,3.22941c0.02839,0.28051 0.05678,0.56103 0.07342,1.0968c0.0958,0.54514 0.20339,0.8351 0.31099,1.12501c0.05238,1.1463 0.10475,2.29261 0.15105,3.82751c0.15177,1.32537 0.30962,2.26215 0.46748,3.19889c0.14306,1.89985 0.28614,3.7997 0.44053,6.04962c0.17393,0.74476 0.33652,1.13949 0.49912,1.53418c0.05643,0.65444 0.11283,1.30889 0.17107,2.28812c0.117,0.59533 0.23214,0.86594 0.34731,1.13652c0.0493,0.32246 0.0986,0.64489 0.1754,1.24385c0.09494,0.41918 0.16239,0.56187 0.22983,0.70455c0.03814,0.49177 0.0763,0.98351 0.14494,1.77772c0.14136,0.43545 0.2522,0.5685 0.36304,0.70151c0.18604,1.00252 0.37207,2.00508 0.60252,3.25744c0.14769,0.37149 0.25098,0.4932 0.35422,0.61488c0.04444,0.33308 0.08887,0.66617 0.16337,1.3271c0.18161,0.63374 0.33315,0.93969 0.48467,1.24561c0.14191,0.61648 0.28379,1.23299 0.47164,2.14594c0.16749,0.42358 0.28904,0.5507 0.41056,0.67783c0.05767,0.32038 0.11533,0.64076 0.21307,1.31856c0.49281,1.61987 0.94557,2.88232 1.39832,4.1448c0.11129,0.45961 0.22254,0.91926 0.39037,1.67658c0.18279,0.42028 0.30908,0.54282 0.43536,0.66539c0.07313,0.32407 0.14626,0.64811 0.27211,1.3091c0.48622,1.2784 0.91973,2.21988 1.35323,3.16138c0.12748,0.47782 0.25497,0.95566 0.46243,1.76972z" id="Path-2-1-1-1" fill="#0c2d5b" stroke-width="1"/><path d="M740.28509,291.25083c16.26883,5.51481 32.54192,11.01725 48.80413,16.55114c5.65093,1.92295 11.27689,3.9182 16.91064,5.89055c4.89751,1.71458 6.4963,5.09022 4.62993,9.97573c-3.68668,9.65062 -7.22507,18.6551 -11.07764,28.55276c-0.34816,0.97129 -1.08734,2.33572 -0.54234,3.20538c0.545,0.86966 8.11843,5.25837 8.08484,8.85159c-0.03359,3.59322 -7.04018,6.57285 -7.47257,6.78177c-2.10989,1.01951 -14.58331,4.94802 -17.36637,5.48151c-4.74746,0.91004 -18.56614,2.0648 -19.84891,2.1702c-4.89141,0.40189 -25.49359,0.58957 -26.58882,0.62838c-7.83157,-0.0113 -28.77891,-1.21532 -30.13928,-1.35939c-1.14433,-0.21163 -23.81827,-2.6748 -24.28908,-2.81876c-0.34384,-0.1235 -24.42726,-5.05046 -25.30452,-5.28203c-1.14244,-0.32586 -16.16202,-4.13127 -17.93572,-4.8195c-1.05368,-0.43976 -17.51142,-6.69353 -23.52782,-9.80521c-2.77399,-1.43469 -7.1598,-3.96244 -8.12627,-7.04631c-0.44055,-1.40572 -0.29725,-2.83259 -0.03692,-3.44512c0.36609,-2.11797 -0.09882,-2.77293 0.51617,-3.46881c1.10458,-1.24989 4.19616,-2.137 5.87173,-2.94162c0.66986,0.68665 4.39947,6.66062 4.81521,7.32747c1.55693,2.32187 5.69508,6.97992 13.56731,9.53157c4.74292,1.15393 9.76701,2.36117 14.62885,3.78334c10.32767,2.45498 19.78507,4.99981 30.047,7.51396c3.86545,0.71396 10.00037,1.68347 14.33513,2.36887c-0.89336,-1.90981 -3.53889,-6.79404 -3.53889,-6.79404c0,0 18.39077,-49.02624 26.80735,-70.89798c1.62846,-4.23171 6.23672,-6.4179 10.63727,-5.11628c2.10483,0.62259 4.24152,1.13956 6.46098,1.84315c2.97903,0.98163 5.8609,1.82443 8.80689,2.77723c0.33332,0.26015 0.60251,0.41032 0.87172,0.56044M725.11603,292.57054c-0.89279,-0.30094 -1.78553,-0.60184 -3.33033,-1.12254c0.58965,1.22023 0.86377,1.83569 1.17814,2.43023c1.97751,3.7402 3.95841,7.47863 5.94847,11.21227c6.16,11.55712 12.34864,23.09943 18.46008,34.68171c0.86351,1.63656 1.67096,1.9093 3.43807,1.16795c16.7457,-7.02543 51.51982,-20.60745 51.28281,-22.04462c-0.23702,-1.43717 -28.27516,-10.15782 -41.85217,-14.715c-11.56635,-3.88233 -23.173,-7.64667 -35.12506,-11.61M755.76001,371.05691c4.37747,-0.35814 8.75494,-0.71632 13.53641,-1.10752c-3.69017,-8.91172 -7.20656,-17.4037 -10.75257,-25.96725c-3.01428,1.23892 -5.63579,2.38528 -8.30911,3.39726c-3.14942,1.19221 -4.4302,0.63784 -5.95624,-2.26945c-1.19998,-2.28604 -2.46106,-4.5406 -3.80808,-7.01711c-15.71826,8.94754 -31.28946,17.81138 -46.90288,26.69928c1.49409,2.82299 5.65399,4.81375 8.3837,5.03268c2.12731,0.17058 8.00289,0.47709 10.13125,0.6361c15.64552,1.16914 27.51772,1.36329 43.67752,0.596M697.50829,348.81751c-1.07123,2.89534 -3.97188,8.88227 -3.63767,9.25987c0.33421,0.3776 29.48214,-16.4664 43.9605,-24.69486c-6.62428,-12.56039 -13.0889,-24.81808 -19.78617,-37.51686c-1.63024,4.06984 -3.08275,7.59004 -4.45504,11.14064c-5.33769,13.81076 -10.64986,27.6312 -16.08162,41.8112M763.53386,341.72229c3.53958,8.67562 6.95058,16.9423 10.2674,25.24587c0.65502,1.63975 1.4384,2.30576 3.30532,1.84757c2.86278,-0.70263 5.8288,-1.00379 8.67346,-1.76118c0.99682,-0.26537 2.17278,-1.20309 2.56828,-2.12733c1.95127,-4.56007 3.6726,-9.21698 5.46692,-13.84275c3.11883,-8.0403 10.23135,-25.02481 9.36253,-26.06723c-0.86882,-1.04242 -26.5803,11.1956 -39.64391,16.70505z" id="CompoundPath-1-1" fill="#14325e" stroke-width="1"/><path d="M610.43842,593.25984c4.63868,3.49143 12.38714,6.48681 18.00101,8.54112c13.18751,4.82596 29.66535,11.38163 38.02864,15.52992c4.34312,2.15424 6.67815,3.67537 9.54004,5.63073c-1.05445,1.81272 -2.59039,6.59813 -2.59039,6.59813c0,0 -2.3913,7.33906 -3.2115,11.74729c-1.01955,5.47967 -1.81848,17.23972 -1.89838,18.72187c-0.0799,1.48215 -7.68699,3.02545 -11.33195,3.26291c-3.81674,0.24865 -7.68476,-0.78587 -11.86541,-1.46754c-3.42144,-0.46666 -14.55785,-3.33941 -18.30408,-4.81767c-2.07739,-0.88952 -2.4872,-1.32863 -2.58582,-2.40751c-0.35266,-2.39483 -0.21802,-16.71374 -1.90622,-25.66967c-1.6882,-8.95592 -3.88644,-15.64297 -6.11876,-22.0492c-1.79451,-5.14984 -5.25598,-11.62253 -5.75718,-13.62038z" id="Path-5-1-1-1" fill="#0a2c5b" stroke-width="1"/><path d="M611.9084,593.73356c-0.87697,-0.85885 -1.8046,-1.89825 -2.02914,-2.23176c-0.22454,-0.33351 -1.83898,-2.70043 -0.36166,-6.05316c1.17373,0.72591 2.07677,1.44883 3.10402,1.89318c7.00316,3.02917 13.99746,6.08267 21.06141,8.96975c10.77855,4.40535 21.70404,8.47298 32.39366,13.07516c10.06128,4.33163 19.52128,9.85315 27.87138,16.90448c9.79689,8.27294 19.10905,17.10274 28.90063,25.3821c4.5266,3.82748 9.40195,7.44469 14.6201,10.25418c18.45382,9.93526 38.69221,13.14341 59.3769,14.11279c6.14775,0.28816 12.333,-0.22015 18.50159,-0.33737c9.82981,-0.18677 19.44107,-1.66958 28.88619,-4.38703c7.88155,-2.26762 15.25091,-5.50474 22.05125,-10.06973c6.0164,-4.03889 10.77715,-9.16372 14.74854,-15.13971c5.43321,-8.17565 7.37553,-15.09024 7.94314,-19.28496c0.56761,-4.19472 -0.30715,-10.72116 -0.76707,-12.21765c-1.62849,-10.90893 -6.15398,-20.32058 -15.60723,-26.86313c-8.15554,-4.37245 -16.57862,-6.782 -22.795,-3.38575c-3.71649,2.03469 -6.19408,3.6108 -6.37075,6.67981c0.08292,0.82462 -0.67319,2.56042 2.06376,6.10965c1.81998,1.90033 0.066,3.67627 -0.82665,3.93623c-1.40695,0.40973 -4.90569,-1.41061 -7.03367,-3.90029c-0.20906,-0.24273 -3.62994,-6.11712 -0.68639,-10.83789c3.82701,-5.95761 7.38419,-6.8678 10.84875,-8.31525c2.01777,-0.843 8.58704,-1.1549 13.86799,-0.54636c5.28095,0.60855 9.05043,2.29496 12.6475,4.65177c1.2075,0.79112 5.01469,3.21438 9.99068,8.77298c4.89558,6.36007 4.59748,7.10092 9.08298,18.9228c2.6624,11.27682 1.89897,10.5707 1.15798,16.41938c-1.04968,5.16399 -0.6845,3.8894 -3.89932,12.05851c-1.49769,5.67004 -12.31216,19.75648 -15.69404,22.47703c-3.38188,2.72055 -4.90433,4.84803 -17.54118,10.73575c-12.63686,5.88772 -24.48409,8.2593 -43.9016,9.94754c-8.33806,0.14785 -20.23246,1.08001 -40.70492,-2.43753c-20.47246,-3.51754 -28.06302,-7.01829 -41.55722,-13.98585c-9.82614,-6.80561 -11.37833,-8.3724 -14.60209,-10.69155c-3.22376,-2.31915 -13.43488,-11.29782 -14.60541,-12.53644c-0.49169,-0.43756 -8.48143,-7.56458 -9.15691,-8.05177c-0.67548,-0.48719 -12.45469,-8.9043 -13.17775,-9.45051c-0.72306,-0.54621 -9.16002,-5.62916 -12.26666,-7.259c-3.10664,-1.62984 -25.71603,-11.17126 -38.90354,-15.99722c-5.61387,-2.05431 -15.75328,-6.46433 -16.63025,-7.32318z" id="Path-6-1-1-1" fill="#dba635" stroke-width="1"/><path d="M539.4947,357.11928c3.71514,1.90699 7.44825,3.83501 10.93342,6.10986c6.42952,4.19674 9.15927,10.59387 10.15752,17.86554c0.22626,1.64819 0.39371,3.30417 0.65461,5.52041c-1.98683,-0.81111 -3.44685,-1.41884 -4.91576,-2.00495c-12.21205,-4.87293 -24.50577,-9.55764 -36.61653,-14.66364c-12.20552,-5.14592 -24.05805,-11.02141 -34.41291,-19.3855c-11.33629,-9.15687 -18.62958,-20.69047 -20.55329,-35.16454c-0.41471,-3.12032 -0.06054,-6.33985 0.41715,-9.66715c10.53454,14.65516 24.68755,24.78632 39.96157,33.90491c11.56287,5.88525 22.99125,11.64221 34.37422,17.48506z" id="Path-8-1-1-1" fill="#dea730" stroke-width="1"/><path d="M613.23816,337.5249c-1.25888,-2.55028 -5.88166,-11.10289 -7.24652,-18.62259c-1.78504,-9.83464 -2.35491,-26.90316 0.25188,-35.2126c3.00194,-9.56901 9.48773,-20.26145 16.72989,-28.67375c7.24216,-8.41229 28.35155,-20.42648 39.03694,-21.78203c20.7741,-2.5851 36.5213,3.70201 39.79305,5.42255c9.78891,4.50246 25.0409,17.82481 31.05361,29.72316c4.05803,7.04316 7.08383,21.14825 7.05342,21.75066c-2.89264,-0.84113 -5.84827,-1.55634 -8.77171,-2.7567c-1.21611,-4.38063 -1.90505,-8.12505 -3.67173,-11.88104c-8.10991,-17.24158 -21.30303,-28.9015 -40.22666,-33.46958c-16.6811,-4.02675 -32.42329,-1.26688 -46.79844,8.03312c-22.81752,14.76175 -32.78636,41.52471 -26.07947,67.71623c3.80905,14.87495 12.08726,26.85828 24.73112,35.86789c2.25144,1.60425 4.52677,3.17592 6.79108,4.76268c-4.70896,-1.35932 -7.79873,-1.67422 -14.64072,-3.94537c-9.36301,-2.49547 -17.60241,-16.41534 -18.00574,-16.93263z" id="Path-9-1-1-1" fill="#dfa935" stroke-width="1"/><path d="M509.59221,374.26367c12.76722,4.85746 25.36448,9.63443 37.96071,14.41398c2.45715,0.93231 4.90752,1.88191 7.36602,2.81068c4.75584,1.79661 7.68985,5.125 8.79258,10.03641c0.75436,3.35978 1.56212,6.7079 2.45761,10.53868c-3.84719,-0.98449 -7.3338,-1.78599 -10.76608,-2.77129c-12.72202,-3.65214 -25.51429,-7.09772 -38.11094,-11.13354c-11.45757,-3.67088 -22.08636,-9.04558 -30.36664,-18.00991c-6.30693,-6.82788 -10.37835,-14.76976 -11.48137,-24.04418c-0.05443,-0.45765 0.05114,-0.93377 0.14076,-2.28202c10.42032,8.8924 21.77221,15.22711 34.00735,20.44119z" id="Path-10-1-1-1" fill="#dea730" stroke-width="1"/><path d="M520.25309,424.45283c-11.4994,-4.68679 -20.43394,-12.03619 -25.50266,-23.47598c-0.41377,-0.93383 -0.70964,-1.91838 -1.29264,-3.51618c1.23261,0.34843 1.91278,0.42614 2.47925,0.71802c8.96046,4.61631 18.43937,7.89645 28.20069,10.34757c9.89497,2.4847 19.86463,4.67989 29.79335,7.03551c3.12137,0.74057 6.2347,1.5271 9.31756,2.40848c2.68443,0.76741 4.9994,2.15966 6.39749,4.65335c1.89333,3.37709 3.71306,6.7943 5.56436,10.19427c-0.12638,0.27355 -0.25276,0.5471 -0.37914,0.82065c-7.1422,-0.69071 -14.28444,-1.38145 -21.64368,-2.11654c-11.31475,-1.51687 -22.44746,-2.79494 -32.93458,-7.06915z" id="Path-12-1-1-1" fill="#dea730" stroke-width="1"/><path d="M713.16353,651.92068c6.21035,5.19083 11.28298,9.51592 17.65302,13.36334c12.76398,7.70947 24.88386,11.61245 41.54284,14.46713c16.65898,2.85468 27.41666,3.32994 41.20251,2.8669c14.95001,-0.50212 29.48536,-3.76264 43.23778,-9.66383c16.07964,-6.89973 27.8402,-18.01379 34.23788,-34.41442c0.69597,-1.78412 2.74749,-7.01198 3.2977,-9.62159c0.52444,-1.90609 1.28701,-7.57088 1.44244,-7.97042c0.17195,0.03475 1.40966,7.11158 -7.24088,30.56986c-9.35729,17.80428 -33.91566,30.25619 -41.24218,32.01241c-7.32652,1.75622 -16.57814,3.67743 -27.08853,4.46128c-10.51039,0.78385 -28.67155,0.63405 -50.39471,-2.79402c-21.72316,-3.42807 -34.21701,-12.03754 -36.97518,-14.14834c-2.75817,-2.1108 -12.00585,-9.08019 -16.17317,-13.46069c-4.16732,-4.3805 -10.28957,-11.43681 -10.28957,-11.43681c0,0 4.54216,3.92035 6.79005,5.7692z" id="Path-13-1-1-1" fill="#15325a" stroke-width="1"/><path d="M582.89587,443.99765c1.14925,1.74003 2.56747,3.30766 4.12922,5.29015c-2.83176,0.52283 -5.36091,1.0425 -7.90841,1.45088c-10.20051,1.63519 -20.48853,2.38552 -30.76569,1.35307c-11.61348,-1.16672 -21.79366,-5.52 -29.19892,-14.88495c-1.00763,-1.27429 -1.76083,-2.74383 -2.3587,-4.54946c18.35633,5.03772 37.14288,4.3401 55.87229,6.17364c4.47537,0.00327 7.85107,1.56452 10.23021,5.16667z" id="Path-15-1-1-1" fill="#dfa935" stroke-width="1"/><path d="M886.31823,628.99751c-1.57391,8.03148 -7.66606,19.38437 -15.93444,26.58112c-11.94815,10.39978 -26.4338,15.14756 -41.82299,17.10756c-19.06381,2.42815 -38.13462,1.74842 -57.10667,-1.63126c-21.35531,-3.80422 -38.05822,-12.97636 -55.29924,-27.99715c-11.89384,-12.10548 -24.9084,-22.95318 -40.01835,-31.11735c-12.82634,-6.93019 -26.42485,-12.0718 -40.08346,-17.13064c-8.08105,-2.99305 -15.96232,-6.5272 -23.83304,-10.03665c-1.31047,-0.58429 -2.49374,-2.13452 -3.05749,-3.50856c-1.09746,-2.67478 -1.71441,-5.54086 -2.64818,-8.19523c0.50951,2.8224 1.18656,5.50236 1.74113,8.20671c0.24199,1.18001 0.7508,2.98855 0.72456,3.06282c-0.00915,0.02447 0.25441,0.57274 0.25441,0.57274c-0.01556,-0.03871 0.5315,0.40581 0.53349,0.4013c-0.01785,-0.005 2.02314,1.48277 3.05039,1.92712c7.00316,3.02917 14.02809,5.95077 21.09204,8.83785c10.77855,4.40535 21.95941,8.52277 32.64903,13.12495c10.06128,4.33163 19.31442,9.96808 27.66452,17.01941c9.79689,8.27294 19.08606,17.03379 28.87764,25.31315c4.5266,3.82748 9.4709,7.46768 14.68905,10.27717c18.45381,9.93526 38.5313,12.29288 59.14704,13.95187c6.19254,0.34017 12.05715,-0.05924 18.45561,-0.33737c9.9221,-0.63422 18.97137,-1.73587 28.21957,-4.22611c8.95851,-2.36594 15.08843,-5.65086 21.88877,-10.21585c6.0164,-4.03889 11.18948,-9.00381 15.16087,-14.97979c5.19725,-8.715 7.00938,-12.62851 7.95185,-21.18976c0.21022,-4.11072 -0.4168,-8.4857 -0.80865,-9.86774c-0.04167,0.52057 -0.16937,9.18507 -1.48746,14.04969z" id="Path-16-1-1-1" fill="#e5daae" stroke-width="1"/><path d="M570.84503,457.04776c-8.44818,1.79905 -16.79855,2.42946 -25.60028,2.20098c0.46656,0.79748 0.63503,1.35116 1.00738,1.68243c6.41516,5.7071 13.83362,8.9698 22.60231,8.58067c5.78702,-0.25684 11.42927,-1.47978 16.73724,-3.75442c3.82309,-1.63831 7.47603,-3.6773 11.12398,-5.68056c0.55057,-0.30232 1.10214,-1.55852 0.89298,-2.07427c-0.71409,-1.76101 -6.69772,-4.57252 -8.65946,-4.22438c-5.96826,1.05911 -11.92838,2.16272 -18.10415,3.26955z" id="Path-18-1-1-1" fill="#deaa38" stroke-width="1"/><path d="M596.27269,482.97982c9.38179,-2.32879 12.94893,-11.00858 13.29527,-18.58516c0.0639,-1.39761 -0.69305,-2.18233 -1.95282,-1.0503c-2.3569,2.11789 -4.74003,4.2538 -6.7829,6.65425c-3.55278,4.17467 -7.14219,8.25735 -11.98545,11.04774c-0.4935,0.2843 -1.02877,0.4982 -1.54467,0.74483c0.17019,0.29322 0.34034,0.58644 0.51053,0.87966c2.6594,1.1843 5.44927,0.87691 8.46004,0.30898z" id="Path-22-1-1-1" fill="#e0ac3a" stroke-width="1"/><path d="M584.98879,471.01009c-2.31798,1.11753 -4.48735,2.12779 -6.65674,3.13808c0.06625,0.24086 0.13245,0.48177 0.1987,0.72269c5.09744,2.06984 10.15878,1.55623 14.88744,-1.16603c4.28002,-2.46403 6.9957,-6.25587 8.23868,-10.93242c-0.23113,-0.28685 -0.46228,-0.57367 -0.6934,-0.86052c-5.27536,2.99698 -10.55072,5.99395 -15.97468,9.0982z" id="Path-23-1-1-1" fill="#e0ac3a" stroke-width="1"/><path d="M676.91773,365.81202c3.87994,0.71252 7.6547,1.30594 12.0057,1.98996c-0.8967,-1.90594 -2.27875,-3.347 -3.06375,-4.62272c-3.39911,0.78362 -5.83239,1.73091 -8.94195,2.63276z" id="Path-195-1-1-1" fill="#d29f35" stroke-width="1"/><path d="M716.94334,459.33114c-7.67122,-0.76937 -14.02169,-0.60941 -21.42921,-3.26055c-3.43683,-1.54761 -6.79682,-4.41469 -6.69146,-8.95315c0.45424,-19.56356 0.50759,-36.04022 0.955,-55.60393c0.15011,-3.72123 2.65681,-4.47999 5.66391,-4.22241c13.11988,1.12384 22.79718,2.17784 35.93905,2.95051c19.44327,0.09635 44.28799,-0.53434 59.43479,-4.54062c5.92112,-1.46874 16.02203,-6.51529 16.49495,-6.22232c0.47292,0.29297 -0.208,2.70528 -0.53378,3.71872c-3.18189,9.89795 -7.91274,17.47732 -9.89487,27.64711c-0.87933,9.65838 -0.8415,7.66529 -0.5048,15.98207c-0.27755,6.79187 1.16739,10.70835 0.02258,11.78417c-1.1448,1.07581 -3.14484,-0.73283 -4.4108,-2.05236c-1.26596,-1.31953 -5.39136,-8.32958 -6.21624,-13.58962c-0.1544,-2.23439 0.72602,-6.23968 -2.22565,-7.23078c-2.16764,-0.15806 -3.05373,1.85992 -4.80379,6.20344c-1.93259,10.17657 -5.28627,29.57016 -7.97861,32.18137c-2.69234,2.61121 -13.71963,3.87643 -19.76048,4.56494c-11.51588,1.31258 -21.746,0.66785 -34.06059,0.64341z" id="Path-237-1-1-1" fill="#092a58" stroke-width="1"/><path d="M731.97521,582.19771c-0.4452,-0.24782 -5.72638,-3.09147 -6.01708,-3.22993c-5.35029,-2.95384 -10.20797,-5.90131 -15.45821,-8.75822c-1.53452,-0.83491 -2.17454,-1.37467 -1.26292,-3.03955c4.56967,-8.34559 8.16837,-15.82333 12.65604,-24.21263c1.1268,-2.10645 1.91949,-1.99355 3.50642,-1.20085c12.63413,6.31097 27.60427,14.46443 40.48128,20.43393c5.99758,2.78033 12.72435,4.37541 19.61218,4.38826c0.57783,0.48886 0.68437,0.92916 1.10428,1.79035c0.41991,0.86118 12.96403,24.97035 13.63464,26.18651c0.67061,1.21616 1.46792,2.24922 1.46792,2.24922c0,0 -0.95247,0.37235 -2.76486,0.95613c-1.85696,0.48907 -2.93433,0.64368 -6.23272,1.21124c-7.69593,0.71862 -13.71937,0.34637 -20.30323,-1.07859c-6.72149,-1.59718 -9.17137,-2.65041 -12.7674,-3.77591c-5.77152,-2.08265 -12.02954,-4.92153 -17.68186,-7.19968c-0.97212,-0.37974 -5.92944,-2.78569 -6.61892,-3.14067c-0.61689,-0.29494 -2.98087,-1.41736 -3.35556,-1.57961z" id="Path-243-1-1-1" fill="#0a2b57" stroke-width="1"/><path d="M701.17613,555.22636c-1.87003,2.72021 -2.18601,3.55259 -3.59262,5.68392c-2.48676,4.41095 -3.98138,3.09006 -7.01291,1.46297c-2.16143,-1.14925 -4.96375,-2.71065 -7.1308,-3.85003c-3.80801,-2.00231 -12.51848,-6.993 -12.5866,-7.14556c-4.74081,-2.97051 -6.18987,-3.94574 -2.79669,-10.25475c3.8804,-6.34846 8.0401,-13.33964 11.90496,-19.63934c2.4516,-4.2669 6.50252,-3.43695 10.92092,-1.1137c6.38557,3.53897 11.11962,5.93922 17.2645,9.55127c2.77212,1.53023 5.24416,3.1284 4.50534,6.23349c-0.00755,0.21837 -3.01136,5.26288 -4.50293,7.91441c-1.42123,2.52649 -3.14884,2.02405 -4.20481,1.52871c-1.05597,-0.49534 -3.87039,-2.32937 -5.50663,-3.36529c-2.96579,-1.76814 -3.94382,-0.88969 -4.82578,0.90407c-1.17329,1.62763 -1.05697,2.99396 1.3286,4.21118c0,0 3.46114,2.08654 4.94128,3.1737c1.48014,1.08716 2.97333,1.79615 1.29417,4.70495z" id="CompoundPath-1-2" fill="#092a58" stroke-width="1"/><path d="M647.02956,290.03517c-1.13533,-0.33591 -2.06565,-0.71674 -3.03191,-0.85653c-0.7633,-0.11046 -1.57079,0.07535 -2.35865,0.12959c0.49436,0.64727 0.84973,1.5291 1.50452,1.9058c7.02811,4.04297 14.12444,7.97118 21.13559,12.04193c0.75471,0.43819 1.41498,1.52392 1.56432,2.40093c0.71132,4.17782 4.52496,7.15249 8.84332,6.69948c4.56426,-0.47874 7.475,-4.13331 7.1466,-8.63062c-0.0822,-1.12586 0.37592,-2.51814 1.07136,-3.42764c1.97581,-2.58404 4.21492,-4.97162 6.32803,-7.45505c5.8636,-6.89128 11.72784,-13.78214 17.55368,-20.7043c0.57234,-0.68003 0.88171,-1.57484 1.31315,-2.36998c-0.24554,-0.18445 -0.49103,-0.36891 -0.73657,-0.55336c-1.02203,0.73849 -2.11765,1.39659 -3.05445,2.22829c-7.2736,6.45764 -14.44403,13.0303 -21.8043,19.38997c-3.00218,2.59401 -5.3626,6.58604 -10.39007,5.72867c-0.13858,-0.02362 -0.3271,0.07866 -0.45424,0.1724c-1.61073,1.18808 -3.22519,0.70163 -4.9023,0.11415c-6.50334,-2.278 -13.02424,-4.50726 -19.72808,-6.81373z" id="Path-276-1-1-1" fill="#e0ac3a" stroke-width="1"/><path d="M668.1873,248.9287c0.18462,2.60365 0.24726,5.03442 0.59699,7.4244c0.08746,0.59768 1.09887,1.06413 1.68565,1.59092c0.50483,-0.57784 1.43927,-1.15478 1.44055,-1.73366c0.00555,-2.57694 -0.15176,-5.16807 -0.49553,-7.722c-0.08365,-0.62127 -1.09782,-1.12099 -1.68412,-1.67663c-0.51977,0.64299 -1.03953,1.28599 -1.54354,2.11697z" id="Path-277-1-1-1" fill="#d9a535" stroke-width="1"/><path d="M675.52097,357.75453c0.88918,0.40514 1.74573,0.80808 2.57282,0.75613c0.24642,-0.01547 0.60845,-1.31579 0.57511,-2.01147c-0.10415,-2.17349 -0.22719,-4.36771 -0.65637,-6.49244c-0.14644,-0.7248 -1.22155,-1.2675 -1.87235,-1.89342c-0.38086,0.6598 -1.08858,1.32159 -1.08447,1.97904c0.01565,2.49608 0.26155,4.99071 0.46526,7.66216z" id="Path-278-1-1-1" fill="#d9a535" stroke-width="1"/><path d="M623.85269,307.55021c1.61298,-0.0645 3.0352,0.02761 4.38302,-0.2416c0.53698,-0.10728 1.24955,-1.00964 1.25625,-1.55749c0.00604,-0.4957 -0.8409,-1.43248 -1.31051,-1.43173c-2.70027,0.00422 -5.40705,0.16472 -8.09362,0.44152c-0.46548,0.04795 -1.23875,0.96876 -1.17151,1.37393c0.09966,0.60072 0.75739,1.47391 1.2949,1.56596c1.09894,0.18817 2.27599,-0.06655 3.64147,-0.15059z" id="Path-279-1-1" fill="#d9a535" stroke-width="1"/><path d="M715.05077,490.53766c7.72706,-0.78597 13.74,-3.57358 16.78642,-15.95888c2.78217,12.47702 7.90118,14.66785 16.07632,16.67404c-7.92806,1.52919 -14.23068,6.67436 -16.27834,17.99495c-2.37239,-11.35838 -7.10243,-15.59778 -16.5844,-18.71011z" id="Path-1" fill="#d9a535"/><path d="M622.0412,504.08825c0.95382,-0.05657 2.8438,1.63669 4.26583,2.45483c7.42178,4.26999 14.84511,8.53734 22.25897,12.82071c1.86243,1.07599 10.342,5.98134 10.55662,6.1215c0.21462,0.14016 2.05257,1.44036 2.62485,0.94804c0.57228,-0.49231 2.61268,-4.12653 3.20387,-4.88945c0.89812,-1.31781 3.03423,-4.98449 4.98963,-7.96555c2.84228,-4.33314 7.18506,-13.67866 19.97628,-7.42489c8.29338,4.05473 23.60501,11.54235 28.90694,14.96054c5.30193,3.4182 9.89312,6.07845 8.35356,11.1157c-1.98664,3.8222 -2.29933,4.95532 -0.96871,5.70226c5.88193,3.16166 20.63678,10.94862 27.99602,14.54655c7.20992,3.52492 13.96715,7.45415 21.8976,9.19329c1.18871,0.26073 2.42911,0.40764 3.64569,0.40823c3.37464,0.00149 4.49882,0.69967 5.62454,4.12011c-6.89924,0.15553 -13.37326,-1.62377 -19.37084,-4.4041c-12.87701,-5.9695 -39.18635,-19.65757 -40.62469,-20.47445c-2.42584,-1.25788 -2.80202,-0.54606 -3.74674,1.25701c-4.50239,8.38141 -7.96303,16.1068 -12.5327,24.45239c-0.91162,1.66488 -0.47242,2.39001 1.0621,3.22492c3.50792,1.90883 6.98542,3.87188 10.40258,5.84742c0.85762,0.49594 9.86424,5.90483 17.2565,9.30566c7.13542,3.54503 14.96945,6.67563 16.12336,7.43774c1.72341,1.13818 12.86139,4.24291 13.11841,4.44218c0.33007,0.11537 6.15076,1.73236 11.7617,2.42833c4.85604,0.00173 5.20263,0.37754 9.83926,0.10375c5.85344,-0.51179 8.4624,-0.99119 9.69117,-1.31743c0.89374,-0.18726 3.39595,-1.2693 3.60898,-1.21869c0.46112,1.00084 1.0278,2.40245 1.40687,3.50327c-6.3583,3.4158 -13.23692,3.82153 -20.19154,3.42859c-12.51103,-0.70687 -28.42536,-6.79353 -28.42536,-6.79353l-17.6903,-7.97625l-15.42259,-8.17898c0,0 -14.25801,-7.65826 -14.29981,-7.68596c-2.32993,-1.544 -2.28795,0.09703 -3.85817,2.26212c-2.36059,3.8002 -6.32389,2.79664 -9.1764,1.89268c-6.66606,-3.32808 -35.00973,-18.28343 -36.77638,-19.83068c-5.08899,-4.45682 -6.26994,-10.6789 -3.33835,-16.78888c1.26432,-2.63504 2.57712,-5.25257 3.99842,-7.80758c0.83156,-1.49495 0.48865,-2.26091 -1.00014,-3.04977c-10.787,-5.71597 -28.22007,-13.98728 -35.22575,-19.85661c-0.55054,-1.01822 -1.52631,-2.32202 -1.3231,-4.33156c0.20321,-2.00954 1.17241,-1.9834 1.40181,-1.98347zM689.52598,562.29169c4.79313,2.71256 5.43411,2.53903 7.22831,0.44987c1.62172,-2.56265 3.976,-6.26231 4.86706,-7.72036c1.85238,-3.03109 -0.09495,-3.77819 -1.96969,-5.08341c-1.93338,-1.34604 -3.97711,-2.7524 -4.30261,-2.91191c-2.25619,-1.37689 -2.42539,-2.0578 -1.19357,-3.96906c1.23182,-1.91126 1.63862,-1.73594 4.40217,-0.36177c2.24842,1.41915 2.3286,1.66009 4.22017,2.71536c1.89158,1.05527 3.80972,2.04481 5.51231,-0.93727c1.38686,-2.42907 3.41407,-5.61596 4.28453,-7.19325c2.36555,-4.28642 -2.36805,-6.76523 -4.52499,-7.95587c-6.31868,-3.48791 -12.61771,-7.01408 -19.00669,-10.37336c-4.4184,-2.32325 -7.47907,-1.4251 -9.93067,2.8418c-1.77421,3.0878 -10.68763,17.79917 -11.59214,19.48091c-2.31574,4.3057 -2.46289,6.90193 1.24036,9.21816c5.15788,3.22604 18.63498,10.59446 20.76544,11.80015z" id="CompoundPath-1-3" fill="#d9a535"/></g><path d="M804.76022,358.54235c-0.89618,-0.85683 -2.84964,-2.04377 -3.47995,-2.5269c-0.58237,-0.38401 -1.34301,-0.9301 -1.80487,-1.07323c0.03757,-0.71133 0.426,-1.07181 0.59994,-1.85912c0.24385,0.14622 2.60921,1.43507 6.87295,4.46503c0.69026,0.49538 3.282,2.63765 4.51197,4.25045c2.14531,2.4241 2.15473,6.50487 2.12232,9.75022c-0.15451,15.47685 -9.85737,29.58696 -12.87245,44.79789c-0.59127,2.98292 0.43926,18.7106 0.45969,23.76123c0.01604,3.96653 -3.97558,4.07495 -3.97558,4.07495c0,0 -5.84408,0.48328 -9.2688,-4.71542c-2.41717,-2.9418 -3.43836,-7.06741 -5.6599,-10.39027c-0.5614,-0.83972 -6.87961,30.49272 -10.14625,32.16788c-13.50644,6.92622 -44.25766,5.58523 -59.27532,5.37327c-10.55188,-1.11627 -31.18574,-1.60275 -32.75802,-17.49582c-1.99157,-20.13148 2.00893,-40.43454 1.38092,-60.64571c-0.05464,-1.7585 -1.63688,-3.62206 -3.39522,-4.18085c-15.47967,-4.91933 -31.90677,-6.86466 -47.33058,-11.93944c-8.83392,-2.90656 -16.71056,-7.96359 -25.09477,-11.89012c-0.52502,-0.24588 -1.50607,-1.16817 -1.62831,-0.62494c-2.75883,12.26009 6.17052,24.62147 6.67506,37.14869c0.81105,20.13734 -5.94795,27.54892 -2.02937,29.65405c5.21949,1.67602 9.87968,-15.65599 10.54499,-19.71724c0.77501,-4.7308 0.30094,-9.57344 0.65106,-14.3495c0.09969,-1.35996 0.49162,-5.00639 1.32084,-3.89303c8.14109,10.93073 6.05135,23.38213 6.05135,23.38213c0,0 -0.79085,18.23686 -0.91651,17.76515c-1.21556,-4.56297 -1.01185,-4.92735 -2.05888,-9.52778c-0.27662,-1.21538 -1.33099,-9.01548 -1.90728,-7.89874c-2.53104,4.90468 -2.45685,10.81622 -6.26474,14.89807c-2.93285,3.89477 -12.97436,7.92441 -13.05335,-1.5086c-0.22856,-6.98871 4.11596,-13.41532 4.63249,-20.33176c1.21696,-16.29534 -6.95128,-32.39657 -8.18885,-48.42481c-0.37604,-4.87021 -2.36072,-12.6711 5.6201,-15.30004c2.05997,-0.67857 -0.39844,4.32412 0.55692,6.18378c1.45835,2.83877 3.44027,5.79574 6.36865,7.29723c11.02696,5.65394 22.71855,10.2476 34.69452,13.75741c20.27866,5.94308 60.55155,11.75386 81.49044,12.06088c17.5718,0.25765 35.22044,-0.51085 52.64666,-2.66775c7.41109,-0.91729 14.52541,-3.60528 21.3522,-6.49132c3.48052,-1.4714 7.98957,-7.76234 5.07665,-10.72794c-0.44254,-0.5905 -2.00041,-2.14632 -2.52072,-2.60799zM784.83406,418.71286c0.23133,2.26088 -1.12228,4.00515 0.39938,6.80399c1.41165,3.40296 3.82508,9.30363 6.63175,12.07344c6.0246,4.23148 5.49717,0.16628 5.30125,-2.14807c0.00351,-7.95511 -0.83346,-16.24475 0.69532,-24.15671c1.96666,-10.17812 6.71727,-19.64897 9.84898,-29.56098c0.10827,-0.46744 0.48456,-1.34275 0.62795,-2.0288c0.1638,-0.88504 0.13813,-1.35168 -1.26332,-0.86094c-1.19387,0.31095 -10.82075,4.11621 -16.76655,5.70254c-8.13918,3.27956 -39.05628,4.55608 -58.74505,4.89449c-13.1387,-0.70041 -25.98925,-2.64358 -39.16032,-2.82676c-1.38361,-0.01924 -2.97256,1.3446 -3.06679,2.65434c-1.40468,19.52289 -2.7451,39.16774 -1.34703,58.69106c0.90085,12.57989 23.36805,11.82693 29.00271,12.21371c17.54308,1.20421 47.1054,-1.28739 52.59885,-3.99129c6.71785,-4.98985 8.47581,-30.24031 10.88215,-35.98461c1.23662,-2.952 1.90796,-3.51551 2.72189,-3.65841c0.81392,-0.1429 1.524,1.06078 1.63883,2.18299z" id="CompoundPath-1-4" fill="#d9a535"/></g><text x="859.12478" y="466.20922" id="PointText-1" fill="#082b59" stroke-width="1" font-family="font-Asimov" font-weight="normal" font-size="169" text-anchor="start">Hermes</text><g fill="#dfa630" stroke-width="1" font-family="font-Asimov" font-weight="normal" font-size="83" text-anchor="start"><text x="803.01836" y="589.71946" transform="scale(1.07761,0.97493)">C</text><text x="883.4284" y="589.71946" transform="scale(1.07761,0.97493)">a</text><text x="948.66743" y="589.71946" transform="scale(1.07761,0.97493)">l</text><text x="1014.06246" y="589.71946" transform="scale(1.07761,0.97493)">e</text><text x="1090.9625" y="589.71946" transform="scale(1.07761,0.97493)">n</text><text x="1168.75953" y="589.71946" transform="scale(1.07761,0.97493)">d</text><text x="1245.62057" y="589.71946" transform="scale(1.07761,0.97493)">a</text><text x="1314.72061" y="589.71946" transform="scale(1.07761,0.97493)">r</text></g></g></g></g></svg>